<mxfile host="app.diagrams.net" modified="2023-07-30T13:39:11.876Z" agent="Mozilla/5.0 (X11; Linux x86_64) AppleWebKit/537.36 (KHTML, like Gecko) Chrome/115.0.0.0 Safari/537.36" version="21.6.6" etag="md-lRqHCF3ogLS2eLqlQ" type="github">
  <diagram name="Page-1" id="qvJFHFXxgqHamNEx91gU">
    <mxGraphModel>
      <root>
        <mxCell id="0" />
        <mxCell id="1" parent="0" />
      </root>
    </mxGraphModel>
  </diagram>
</mxfile>
